<svg xmlns="http://www.w3.org/2000/svg" version="1.1" xmlns:xlink="http://www.w3.org/1999/xlink" xmlns:svgjs="http://svgjs.dev/svgjs" width="1000" height="1000" viewBox="0 0 1000 1000"><rect width="1000" height="1000" fill="#000000"></rect><g transform="matrix(0.7,0,0,0.7,149.57575757575762,392.4998140875936)"><svg viewBox="0 0 396 122" data-background-color="#ffffff" preserveAspectRatio="xMidYMid meet" height="308" width="1000" xmlns="http://www.w3.org/2000/svg" xmlns:xlink="http://www.w3.org/1999/xlink"><g id="tight-bounds" transform="matrix(1,0,0,1,0.23999999999995225,-0.169653611718104)"><svg viewBox="0 0 395.52 122.33930722343618" height="122.33930722343618" width="395.52"><g><svg viewBox="0 0 580.63468537415 179.5976060845756" height="122.33930722343618" width="395.52"><g transform="matrix(1,0,0,1,185.11468537415,46.48051889260725)"><svg viewBox="0 0 395.52 86.6365682993611" height="86.6365682993611" width="395.52"><g id="textblocktransform"><svg viewBox="0 0 395.52 86.6365682993611" height="86.6365682993611" width="395.52" id="textblock"><g><svg viewBox="0 0 395.52 86.6365682993611" height="86.6365682993611" width="395.52"><g transform="matrix(1,0,0,1,0,0)"><svg width="395.52" viewBox="0.9 -35.5 164.34 36" height="86.6365682993611" data-palette-color="#297037"><path d="M5.85 0L5.85-1.5 24.25-1.5 13.65-30.65 2.5 0 0.9 0 13.65-35.05 26.4 0 5.85 0ZM33.15-33.5L33.15-35 53.65-35 40.9 0.05 28.15-35 29.75-35 40.9-4.35 51.5-33.5 33.15-33.5ZM77.4-19.8L77.4-18.3 62.55-18.3 77.84-33.5 60.95-33.5 60.95-1.5 80.34-1.5 80.34 0 59.45 0 59.45-35 81.5-35 66.2-19.8 77.4-19.8ZM92.14 0L92.14-1.5 105.94-1.5 99.89-18.1 102.69-19.7Q106.14-21.6 106.14-25.75L106.14-25.75Q106.14-33.5 94.34-33.5L94.34-33.5 89.74-33.5 89.74 0 88.24 0 88.24-35 94.34-35Q100.94-35 104.29-32.58 107.64-30.15 107.64-25.75L107.64-25.75Q107.64-20.75 103.44-18.4L103.44-18.4 101.74-17.45 108.09 0 92.14 0ZM114.69-26.35L114.69-26.35Q114.69-31.2 117.14-33.35 119.59-35.5 125.09-35.5L125.09-35.5Q128.94-35.5 131.29-33.5 133.64-31.5 134.69-27.4L134.69-27.4 130.04-23.9 127.59-23.9 132.99-27.95Q131.94-31.3 129.97-32.65 127.99-34 125.09-34L125.09-34Q123.09-34 121.72-33.75 120.34-33.5 118.97-32.77 117.59-32.05 116.89-30.45 116.19-28.85 116.19-26.35L116.19-26.35Q116.19-24.15 118.22-22.45 120.24-20.75 123.14-19.55 126.04-18.35 128.97-17.1 131.89-15.85 133.92-13.9 135.94-11.95 135.94-9.4L135.94-9.4Q135.94-4.4 133.47-1.95 130.99 0.5 124.99 0.5L124.99 0.5Q120.09 0.5 117.29-1.48 114.49-3.45 113.44-7.6L113.44-7.6 114.84-8.2Q115.84-4.15 118.27-2.58 120.69-1 124.99-1L124.99-1Q129.79-1 132.12-2.85 134.44-4.7 134.44-9.4L134.44-9.4Q134.44-11.6 132.42-13.3 130.39-15 127.47-16.2 124.54-17.4 121.64-18.65 118.74-19.9 116.72-21.85 114.69-23.8 114.69-26.35ZM144.69 0L144.69-1.5 163.09-1.5 152.49-30.65 141.34 0 139.74 0 152.49-35.05 165.24 0 144.69 0Z" opacity="1" transform="matrix(1,0,0,1,0,0)" fill="#ffffff" class="wordmark-text-0" data-fill-palette-color="primary" id="text-0"></path></svg></g></svg></g></svg></g></svg></g><g><svg viewBox="0 0 164.66187087631005 179.5976060845756" height="179.5976060845756" width="164.66187087631005"><g><svg xmlns:x="http://ns.adobe.com/Extensibility/1.0/" xmlns:i="http://ns.adobe.com/AdobeIllustrator/10.0/" xmlns:graph="http://ns.adobe.com/Graphs/1.0/" xmlns="http://www.w3.org/2000/svg" xmlns:xlink="http://www.w3.org/1999/xlink" version="1.1" x="0" y="0" viewBox="0 0 89.3 97.4" style="enable-background:new 0 0 100 100;" xml:space="preserve" height="179.5976060845756" width="164.66187087631005" class="icon-icon-0" data-fill-palette-color="accent" id="icon-0"><g i:extraneous="self" transform="matrix(1,0,0,1,0,0)" fill="#297037" data-fill-palette-color="accent"><g fill="#297037" data-fill-palette-color="accent"><circle cx="38.8" cy="20.8" r="18" fill="#ffffff" data-fill-palette-color="accent"></circle><path d="M62.3 51.5c-2.3-3.9-5.9-6.9-10.1-8.5-3.9 2.4-8.5 3.8-13.4 3.8s-9.5-1.4-13.4-3.8c-6.7 2.5-11.8 8.5-12.7 15.9l-1.9 19.2c-0.2 2.4 1.5 4.5 3.9 4.7 6.7 0.7 18 1.1 28.6 1-0.6-2.2-0.9-4.4-0.9-6.8C42.4 64.7 50.9 54.3 62.3 51.5z" fill="#ffffff" data-fill-palette-color="accent"></path><path d="M68.8 56.6c-11.3 0-20.4 9.2-20.4 20.4s9.2 20.4 20.4 20.4c11.3 0 20.5-9.2 20.5-20.4S80.1 56.6 68.8 56.6zM54.8 70c2.7-5.3 8-8.6 14-8.6 5.9 0 11.3 3.3 14 8.6 0.3 0.6 0.2 1.3-0.2 1.8-0.4 0.5-1.1 0.7-1.8 0.5-3.7-1.1-7.8-1.7-12-1.7-4.2 0-8.3 0.6-12 1.7-0.6 0.2-1.3 0-1.8-0.5C54.6 71.3 54.5 70.6 54.8 70zM64.4 91.3c-0.5 0.3-1.1 0.4-1.7 0.2-4.3-1.8-7.5-5.3-8.9-9.7-0.3-0.8 0.2-1.7 1-2 0.6-0.2 1.2-0.4 1.8-0.6 0.8-0.2 1.7 0.1 2 0.9 1.1 2.4 3 4.3 5.3 5.4 0.6 0.3 0.9 0.8 1 1.4l0.2 3.1C65.2 90.5 64.9 91 64.4 91.3zM68.8 81.6c-1.8 0-3.3-1.5-3.3-3.3 0-1.8 1.5-3.3 3.3-3.3 1.8 0 3.3 1.5 3.3 3.3C72 80.2 70.6 81.6 68.8 81.6zM74.8 91.5c-0.6 0.2-1.2 0.2-1.7-0.2-0.5-0.3-0.7-0.9-0.7-1.4l0.2-3.1c0-0.6 0.4-1.2 1-1.4 2.3-1.1 4.2-3 5.3-5.4 0.3-0.6 0.9-0.9 1.5-0.9 0.2 0 0.3 0 0.5 0.1 0.6 0.2 1.2 0.4 1.7 0.6 0.8 0.3 1.3 1.2 1 2C82.3 86.2 79.1 89.7 74.8 91.5z" fill="#ffffff" data-fill-palette-color="accent"></path></g></g></svg></g></svg></g></svg></g><defs></defs></svg><rect width="395.52" height="122.33930722343618" fill="none" stroke="none" visibility="hidden"></rect></g></svg></g></svg>