<svg xmlns="http://www.w3.org/2000/svg" version="1.1" xmlns:xlink="http://www.w3.org/1999/xlink" xmlns:svgjs="http://svgjs.dev/svgjs" width="1000" height="1000" viewBox="0 0 1000 1000"><rect width="1000" height="1000" fill="#000000"></rect><g transform="matrix(0.7,0,0,0.7,149.57575757575756,376.79404263738627)"><svg viewBox="0 0 396 140" data-background-color="#ffffff" preserveAspectRatio="xMidYMid meet" height="353" width="1000" xmlns="http://www.w3.org/2000/svg" xmlns:xlink="http://www.w3.org/1999/xlink"><g id="tight-bounds" transform="matrix(1,0,0,1,0.2400000000000091,-0.19480937434349244)"><svg viewBox="0 0 395.52 140.38973438136122" height="140.38973438136122" width="395.52"><g><svg viewBox="0 0 688.636472839109 244.43135999999998" height="140.38973438136122" width="395.52"><g transform="matrix(1,0,0,1,0,80.97039217818917)"><svg viewBox="0 0 395.52 82.49057564362163" height="82.49057564362163" width="395.52"><g id="textblocktransform"><svg viewBox="0 0 395.52 82.49057564362163" height="82.49057564362163" width="395.52" id="textblock"><g><svg viewBox="0 0 395.52 82.49057564362163" height="82.49057564362163" width="395.52"><g transform="matrix(1,0,0,1,0,0)"><svg width="395.52" viewBox="1.05 -35.35 172.83999999999997 36.050000000000004" height="82.49057564362163" data-palette-color="#096a2e"><path d="M28.25-3Q28.75-1.35 29.55-0.5L29.55-0.5Q28.6 0.55 26.85 0.55L26.85 0.55Q25.75 0.55 24.98 0.08 24.2-0.4 24-1.25L24-1.25 21.15-10.85 8.4-10.85 6.1-2.9Q5.8-1.7 5.8-1.15L5.8-1.15Q5.8-0.3 6.15 0.1L6.15 0.1Q4.9 0.55 3.65 0.55L3.65 0.55Q2.3 0.55 1.68 0.08 1.05-0.4 1.05-1.45L1.05-1.45Q1.05-2.3 1.6-3.95L1.6-3.95 12-34.65Q13.8-35.35 15.8-35.35L15.8-35.35Q18-35.35 18.45-33.75L18.45-33.75 28.25-3ZM9.2-13.5L20.35-13.5 14.7-32.4 9.2-13.5ZM55.5-35.35Q58.2-35.35 58.15-33.35L58.15-33.35Q58.15-32.4 57.65-30.8L57.65-30.8 47.45-0.1Q45.75 0.6 44.35 0.6L44.35 0.6Q41.85 0.6 41.4-0.85L41.4-0.85 31.65-31.8Q31.15-33.45 30.35-34.3L30.35-34.3Q31.4-35.35 33.15-35.35L33.15-35.35Q35.6-35.35 36.05-33.55L36.05-33.55 44.9-2.8 53.1-31.9Q53.45-32.85 53.45-33.65L53.45-33.65Q53.45-34.4 53.1-34.9L53.1-34.9Q54.25-35.35 55.5-35.35L55.5-35.35ZM82.7-4.1Q83.15-3.85 83.37-3.2 83.59-2.55 83.59-1.85L83.59-1.85Q83.59-1.05 83.3-0.53 83 0 82.45 0L82.45 0 66.59 0Q65.4 0 64.67-0.65 63.95-1.3 63.95-2.5L63.95-2.5 63.95-28.1Q63.95-31.45 63.25-33.5L63.25-33.5Q64-34.2 64.84-34.45 65.7-34.7 67.2-34.7L67.2-34.7 82.2-34.7Q83-34.7 83-33.4L83-33.4Q83-32.6 82.62-31.78 82.25-30.95 81.7-30.7L81.7-30.7Q75.2-32.1 68.45-32.25L68.45-32.25 68.5-19.5 80.45-19.5Q80.59-18.85 80.59-18.2L80.59-18.2Q80.59-17.45 80.45-16.85L80.45-16.85 68.5-16.85 68.55-2.4Q71.9-2.45 75.77-2.95 79.65-3.45 82.7-4.1L82.7-4.1ZM115.44-3.6Q115.74-3 115.74-2.2L115.74-2.2Q115.74-0.9 114.69-0.18 113.64 0.55 112.54 0.55L112.54 0.55Q110.49 0.55 109.37-0.73 108.24-2 107.09-4.85L107.09-4.85 104.94-10.4Q104.29-12.05 103.72-13 103.14-13.95 101.97-14.63 100.79-15.3 98.84-15.3L98.84-15.3 95.54-15.3 95.54-5.8Q95.54-4.5 95.69-2.98 95.84-1.45 96.24-0.45L96.24-0.45Q95.84-0.05 95.14 0.28 94.44 0.6 93.59 0.6L93.59 0.6Q92.39 0.6 91.67-0.08 90.94-0.75 90.94-1.9L90.94-1.9 90.94-28.6Q90.94-29.75 90.77-31.43 90.59-33.1 90.24-34.2L90.24-34.2Q92.64-35.35 97.94-35.35L97.94-35.35Q105.14-35.35 108.62-33.15 112.09-30.95 112.09-26L112.09-26Q112.09-22.35 110.02-19.85 107.94-17.35 104.34-16.45L104.34-16.45Q106.09-15.95 107.14-14.78 108.19-13.6 109.19-11.6L109.19-11.6 111.59-5.9Q112.24-4.35 112.79-3.7 113.34-3.05 114.04-3L114.04-3Q114.89-3 115.44-3.6L115.44-3.6ZM95.54-17.25L99.04-17.2Q102.64-17.3 104.87-19.6 107.09-21.9 107.09-25.6L107.09-25.6Q107.09-29.55 104.99-31.5 102.89-33.45 98.24-33.45L98.24-33.45Q96.14-33.45 95.54-33.35L95.54-33.35 95.54-17.25ZM130.19 0.7Q124.59 0.7 121.74-1.38 118.89-3.45 118.89-6.65L118.89-6.65Q118.89-9.75 121.89-9.75L121.89-9.75Q122.14-9.75 122.94-9.65L122.94-9.65Q122.79-9.05 122.79-8.3L122.79-8.3Q122.79-7.75 122.84-7.45L122.84-7.45Q123.04-4.7 125.12-3 127.19-1.3 130.74-1.3L130.74-1.3Q133.84-1.3 135.74-2.83 137.64-4.35 137.64-7.2L137.64-7.2Q137.64-9.05 136.79-10.45 135.94-11.85 134.34-13.03 132.74-14.2 129.89-15.8L129.89-15.8Q126.39-17.75 124.42-19.2 122.44-20.65 121.29-22.53 120.14-24.4 120.14-27L120.14-27Q120.14-31.2 123.19-33.27 126.24-35.35 130.99-35.35L130.99-35.35Q135.54-35.35 138.31-33.73 141.09-32.1 141.09-29.25L141.09-29.25Q141.09-26.95 138.79-26.75L138.79-26.75Q138.59-26.7 138.09-26.7L138.09-26.7Q137.49-26.7 137.19-26.8L137.19-26.8Q137.24-27.05 137.24-27.6L137.24-27.6Q137.24-28.4 137.09-29.05L137.09-29.05Q136.84-31.1 135.06-32.25 133.29-33.4 130.49-33.4L130.49-33.4Q127.99-33.4 126.22-32.25 124.44-31.1 124.44-28.5L124.44-28.5Q124.44-26.65 125.32-25.28 126.19-23.9 127.82-22.75 129.44-21.6 132.39-19.95L132.39-19.95Q135.49-18.3 137.56-16.8 139.64-15.3 140.89-13.25 142.14-11.2 142.14-8.55L142.14-8.55Q142.14-6.05 140.92-3.95 139.69-1.85 136.99-0.58 134.29 0.7 130.19 0.7L130.19 0.7ZM172.59-3Q173.09-1.35 173.89-0.5L173.89-0.5Q172.94 0.55 171.19 0.55L171.19 0.55Q170.09 0.55 169.31 0.08 168.54-0.4 168.34-1.25L168.34-1.25 165.49-10.85 152.74-10.85 150.44-2.9Q150.14-1.7 150.14-1.15L150.14-1.15Q150.14-0.3 150.49 0.1L150.49 0.1Q149.24 0.55 147.99 0.55L147.99 0.55Q146.64 0.55 146.01 0.08 145.39-0.4 145.39-1.45L145.39-1.45Q145.39-2.3 145.94-3.95L145.94-3.95 156.34-34.65Q158.14-35.35 160.14-35.35L160.14-35.35Q162.34-35.35 162.79-33.75L162.79-33.75 172.59-3ZM153.54-13.5L164.69-13.5 159.04-32.4 153.54-13.5Z" opacity="1" transform="matrix(1,0,0,1,0,0)" fill="#ffffff" class="wordmark-text-0" data-fill-palette-color="primary" id="text-0"></path></svg></g></svg></g></svg></g></svg></g><g transform="matrix(1,0,0,1,444.205112839109,0)"><svg viewBox="0 0 244.43135999999998 244.43135999999998" height="244.43135999999998" width="244.43135999999998"><g><svg viewBox="0 0 244.43135999999998 244.43135999999998" height="244.43135999999998" width="244.43135999999998"><g transform="matrix(1,0,0,1,69.39388278362401,64.60265593644992)"><svg viewBox="0 0 105.64359443275197 115.22604812710014" height="115.22604812710014" width="105.64359443275197"><g><svg xmlns:x="http://ns.adobe.com/Extensibility/1.0/" xmlns:i="http://ns.adobe.com/AdobeIllustrator/10.0/" xmlns:graph="http://ns.adobe.com/Graphs/1.0/" xmlns="http://www.w3.org/2000/svg" xmlns:xlink="http://www.w3.org/1999/xlink" version="1.1" x="0" y="0" viewBox="0 0 89.3 97.4" style="enable-background:new 0 0 100 100;" xml:space="preserve" height="115.22604812710014" width="105.64359443275197" class="icon-z$-0" data-fill-palette-color="accent" id="z$-0"><g i:extraneous="self" transform="matrix(1,0,0,1,0,0)" fill="#096a2e" data-fill-palette-color="accent"><g fill="#096a2e" data-fill-palette-color="accent"><circle cx="38.8" cy="20.8" r="18" fill="#ffffff" data-fill-palette-color="accent"></circle><path d="M62.3 51.5c-2.3-3.9-5.9-6.9-10.1-8.5-3.9 2.4-8.5 3.8-13.4 3.8s-9.5-1.4-13.4-3.8c-6.7 2.5-11.8 8.5-12.7 15.9l-1.9 19.2c-0.2 2.4 1.5 4.5 3.9 4.7 6.7 0.7 18 1.1 28.6 1-0.6-2.2-0.9-4.4-0.9-6.8C42.4 64.7 50.9 54.3 62.3 51.5z" fill="#ffffff" data-fill-palette-color="accent"></path><path d="M68.8 56.6c-11.3 0-20.4 9.2-20.4 20.4s9.2 20.4 20.4 20.4c11.3 0 20.5-9.2 20.5-20.4S80.1 56.6 68.8 56.6zM54.8 70c2.7-5.3 8-8.6 14-8.6 5.9 0 11.3 3.3 14 8.6 0.3 0.6 0.2 1.3-0.2 1.8-0.4 0.5-1.1 0.7-1.8 0.5-3.7-1.1-7.8-1.7-12-1.7-4.2 0-8.3 0.6-12 1.7-0.6 0.2-1.3 0-1.8-0.5C54.6 71.3 54.5 70.6 54.8 70zM64.4 91.3c-0.5 0.3-1.1 0.4-1.7 0.2-4.3-1.8-7.5-5.3-8.9-9.7-0.3-0.8 0.2-1.7 1-2 0.6-0.2 1.2-0.4 1.8-0.6 0.8-0.2 1.7 0.1 2 0.9 1.1 2.4 3 4.3 5.3 5.4 0.6 0.3 0.9 0.8 1 1.4l0.2 3.1C65.2 90.5 64.9 91 64.4 91.3zM68.8 81.6c-1.8 0-3.3-1.5-3.3-3.3 0-1.8 1.5-3.3 3.3-3.3 1.8 0 3.3 1.5 3.3 3.3C72 80.2 70.6 81.6 68.8 81.6zM74.8 91.5c-0.6 0.2-1.2 0.2-1.7-0.2-0.5-0.3-0.7-0.9-0.7-1.4l0.2-3.1c0-0.6 0.4-1.2 1-1.4 2.3-1.1 4.2-3 5.3-5.4 0.3-0.6 0.9-0.9 1.5-0.9 0.2 0 0.3 0 0.5 0.1 0.6 0.2 1.2 0.4 1.7 0.6 0.8 0.3 1.3 1.2 1 2C82.3 86.2 79.1 89.7 74.8 91.5z" fill="#ffffff" data-fill-palette-color="accent"></path></g></g></svg></g></svg></g><g><path d="M26.918 80.04c0.777 0.04 1.409-0.047 1.896-0.261v0c0.301 0.568 0.319 1.222 0.054 1.962v0c-0.169 0.472-0.413 0.834-0.734 1.087-0.323 0.259-0.678 0.366-1.064 0.321v0l-6.784-0.374-2.91 8.143 4.558 3.28c0.465 0.31 0.812 0.506 1.041 0.588v0c0.364 0.13 0.658 0.152 0.883 0.068v0c0.002 0.598-0.093 1.165-0.284 1.7v0c-0.205 0.574-0.457 0.956-0.754 1.145-0.3 0.195-0.673 0.213-1.12 0.053v0c-0.357-0.128-0.845-0.435-1.462-0.922v0l-17.228-13.636c-0.026-0.873 0.113-1.737 0.418-2.591v0c0.333-0.931 0.875-1.371 1.626-1.318v0zM15.876 89.8l2.541-7.111-13.356-0.704z" fill="#ffffff" data-fill-palette-color="accent"></path><path d="M43.327 24.914c0.906-0.817 1.655-0.881 2.248-0.194v0c0.286 0.317 0.586 0.822 0.901 1.514v0l8.802 20.075c-0.355 0.749-0.769 1.337-1.242 1.764v0c-0.835 0.753-1.548 0.954-2.14 0.602v0l-18.961-11.144c-0.665-0.404-1.26-0.629-1.786-0.675v0c0.035-0.67 0.344-1.268 0.927-1.794v0c0.825-0.744 1.585-0.883 2.281-0.415v0l18.413 11.461-9.084-18.37c-0.17-0.421-0.376-0.765-0.616-1.032v0c-0.227-0.252-0.475-0.411-0.746-0.477v0c0.251-0.5 0.586-0.939 1.003-1.315z" fill="#ffffff" data-fill-palette-color="accent"></path><path d="M103.307 19.952c0.225 0.051 0.425 0.208 0.6 0.469 0.174 0.255 0.303 0.536 0.387 0.843v0c0.094 0.347 0.106 0.652 0.037 0.916-0.069 0.264-0.224 0.429-0.466 0.495v0l-10.368 2.808c-0.523 0.142-0.98 0.114-1.369-0.081-0.398-0.201-0.668-0.563-0.811-1.086v0l-4.535-16.744c-0.395-1.458-0.864-2.595-1.407-3.409v0c0.244-0.396 0.534-0.699 0.869-0.909 0.344-0.206 0.844-0.397 1.498-0.574v0l9.818-2.66c0.347-0.094 0.596 0.14 0.749 0.703v0c0.096 0.353 0.11 0.732 0.044 1.135-0.066 0.404-0.205 0.694-0.417 0.871v0c-2.998 0.152-5.977 0.594-8.937 1.326v0l2.288 8.33 7.817-2.118c0.143 0.27 0.253 0.546 0.329 0.827v0c0.089 0.327 0.136 0.63 0.141 0.909v0l-7.817 2.118 2.59 9.448c1.459-0.416 3.003-0.964 4.63-1.644 1.635-0.675 3.078-1.332 4.33-1.973z" fill="#ffffff" data-fill-palette-color="accent"></path><path d="M156.933 24.365c0.07 0.295 0.065 0.617-0.016 0.967v0c-0.134 0.574-0.468 0.966-1.004 1.174-0.537 0.216-1.047 0.267-1.529 0.155v0c-0.904-0.211-1.538-0.654-1.902-1.33-0.364-0.676-0.651-1.699-0.86-3.07v0l-0.57-4.003c-0.115-0.792-0.252-1.426-0.413-1.902-0.154-0.474-0.454-0.92-0.899-1.336-0.452-0.418-1.107-0.727-1.964-0.927v0l-2.178-0.508-1.459 6.265c-0.134 0.574-0.246 1.205-0.337 1.894-0.089 0.682-0.096 1.264-0.021 1.748v0c-0.22 0.137-0.497 0.239-0.834 0.307-0.344 0.073-0.704 0.066-1.08-0.023v0c-0.528-0.123-0.916-0.37-1.163-0.74-0.254-0.372-0.322-0.812-0.203-1.321v0l4.104-17.616c0.118-0.508 0.227-1.14 0.327-1.896 0.093-0.757 0.12-1.395 0.08-1.912v0c1.174-0.262 2.926-0.122 5.255 0.421v0c3.167 0.738 5.403 1.77 6.708 3.096 1.305 1.327 1.704 3.079 1.196 5.256v0c-0.374 1.603-1.144 2.85-2.311 3.74-1.174 0.888-2.599 1.346-4.274 1.373v0c0.721 0.398 1.252 0.911 1.592 1.539 0.342 0.622 0.632 1.424 0.869 2.405v0l0.705 4.139c0.125 0.746 0.277 1.289 0.456 1.63 0.17 0.346 0.408 0.565 0.713 0.656v0c0.376 0.088 0.714 0.027 1.012-0.181zM145.898 12.299l2.309 0.569c1.594 0.323 2.997 0.093 4.209-0.689 1.22-0.787 2.019-1.992 2.397-3.615v0c0.406-1.742 0.244-3.15-0.487-4.225-0.724-1.073-2.109-1.848-4.154-2.324v0c-0.924-0.215-1.523-0.33-1.797-0.346v0z" fill="#ffffff" data-fill-palette-color="accent"></path><path d="M190.672 48.248c-1.905-1.67-3.031-3.284-3.379-4.841-0.351-1.552-0.049-2.872 0.907-3.963v0c0.92-1.049 1.89-1.127 2.908-0.234v0c0.087 0.076 0.251 0.248 0.495 0.515v0c-0.23 0.159-0.456 0.366-0.679 0.621v0c-0.165 0.188-0.282 0.343-0.352 0.462v0c-0.756 0.995-1.034 2.089-0.836 3.281 0.203 1.196 0.906 2.322 2.109 3.376v0c1.054 0.925 2.131 1.413 3.228 1.466 1.103 0.048 2.078-0.412 2.927-1.38v0c0.554-0.632 0.893-1.312 1.018-2.04 0.125-0.728 0.091-1.533-0.1-2.413-0.192-0.871-0.532-2.003-1.023-3.397v0c-0.611-1.707-1.034-3.101-1.268-4.18-0.244-1.079-0.282-2.108-0.116-3.089 0.166-0.981 0.638-1.914 1.415-2.8v0c1.251-1.426 2.704-2.035 4.359-1.828 1.655 0.199 3.29 1.006 4.905 2.422v0c1.549 1.358 2.551 2.728 3.006 4.109 0.46 1.376 0.266 2.549-0.583 3.517v0c-0.688 0.784-1.453 0.866-2.296 0.244v0c-0.08-0.043-0.203-0.138-0.371-0.285v0c-0.204-0.179-0.343-0.328-0.419-0.448v0c0.091-0.073 0.219-0.204 0.385-0.393v0c0.237-0.27 0.426-0.537 0.567-0.8v0c0.525-0.774 0.659-1.62 0.402-2.54-0.262-0.924-0.867-1.801-1.814-2.632v0c-0.851-0.746-1.749-1.186-2.694-1.321-0.95-0.139-1.812 0.232-2.584 1.113v0c-0.554 0.632-0.884 1.311-0.99 2.038-0.115 0.728-0.07 1.529 0.136 2.404 0.216 0.874 0.577 2.029 1.085 3.465v0c0.559 1.49 0.969 2.8 1.23 3.93 0.256 1.126 0.292 2.22 0.107 3.284-0.184 1.073-0.671 2.06-1.462 2.962v0c-0.746 0.851-1.64 1.449-2.683 1.796-1.043 0.347-2.213 0.335-3.509-0.036-1.297-0.371-2.64-1.166-4.031-2.385z" fill="#ffffff" data-fill-palette-color="accent"></path><path d="M223.669 97.041c-0.622 0.467-1.052 0.938-1.288 1.415v0c-0.595-0.244-1.027-0.734-1.298-1.472v0c-0.173-0.471-0.217-0.905-0.133-1.305 0.082-0.405 0.286-0.715 0.612-0.928v0l5.449-4.058-2.982-8.118-5.601 0.401c-0.555 0.06-0.948 0.132-1.177 0.215v0c-0.362 0.133-0.603 0.304-0.72 0.514v0c-0.385-0.458-0.675-0.954-0.872-1.488v0c-0.21-0.572-0.261-1.026-0.153-1.362 0.105-0.342 0.381-0.595 0.826-0.758v0c0.356-0.131 0.927-0.207 1.713-0.228v0l21.964-0.565c0.579 0.653 1.025 1.406 1.338 2.259v0c0.341 0.928 0.206 1.613-0.404 2.053v0zM225.897 82.473l2.604 7.088 10.708-8.014z" fill="#ffffff" data-fill-palette-color="accent"></path><path d="M13.596 174.114c-0.621 0.458-1.051 0.917-1.29 1.377v0c-0.581-0.239-1.003-0.725-1.264-1.459v0c-0.166-0.466-0.208-0.897-0.126-1.293 0.082-0.396 0.287-0.699 0.615-0.91v0l5.419-3.957-2.864-8.042-5.531 0.341c-0.55 0.052-0.939 0.119-1.169 0.201v0c-0.357 0.127-0.596 0.295-0.717 0.503v0c-0.371-0.457-0.652-0.951-0.84-1.481v0c-0.202-0.568-0.251-1.018-0.146-1.35 0.105-0.332 0.38-0.578 0.827-0.737v0c0.351-0.125 0.915-0.197 1.693-0.214v0l21.692-0.337c0.564 0.655 0.996 1.404 1.296 2.246v0c0.33 0.925 0.192 1.6-0.412 2.024v0zM15.932 159.744l2.503 7.027 10.65-7.806z" fill="#ffffff" data-fill-palette-color="accent"></path><path d="M62.98 202.708c0.895 0.808 1.035 1.533 0.419 2.173v0c-0.286 0.317-0.75 0.664-1.393 1.042v0l-18.833 10.678c-0.777-0.272-1.399-0.62-1.866-1.042v0c-0.825-0.745-1.094-1.427-0.81-2.046v0l9.048-19.75c0.325-0.693 0.481-1.3 0.469-1.822v0c0.665-0.029 1.287 0.218 1.865 0.74v0c0.809 0.731 1.022 1.461 0.636 2.191v0l-9.404 19.25 17.131-10.779c0.402-0.212 0.721-0.449 0.957-0.71v0c0.227-0.251 0.358-0.512 0.392-0.783v0c0.514 0.199 0.977 0.485 1.389 0.858z" fill="#ffffff" data-fill-palette-color="accent"></path><path d="M99.919 241.804c0.161 0.156 0.253 0.388 0.275 0.696 0.022 0.308-0.008 0.612-0.09 0.913v0c-0.094 0.347-0.236 0.613-0.427 0.8-0.193 0.193-0.407 0.258-0.642 0.195v0l-10.241-2.773c-0.517-0.14-0.894-0.393-1.131-0.76-0.231-0.364-0.277-0.805-0.137-1.321v0l4.478-16.538c0.39-1.439 0.551-2.644 0.485-3.617v0c0.408-0.212 0.81-0.321 1.204-0.326 0.396-0.012 0.918 0.07 1.566 0.245v0l9.691 2.624c0.34 0.092 0.434 0.419 0.282 0.982v0c-0.094 0.347-0.267 0.675-0.52 0.985-0.259 0.309-0.521 0.487-0.787 0.535v0c-2.636-1.36-5.4-2.466-8.292-3.32v0l-2.202 8.248 7.72 2.09c-0.009 0.292-0.052 0.579-0.128 0.861v0c-0.089 0.327-0.2 0.609-0.334 0.846v0l-7.72-2.09-2.49 9.348c1.444 0.37 3.029 0.673 4.755 0.909 1.732 0.238 3.294 0.394 4.685 0.468z" fill="#ffffff" data-fill-palette-color="accent"></path><path d="M159.853 238.2c0.192 0.226 0.329 0.515 0.41 0.864v0c0.132 0.567 0.007 1.059-0.375 1.475-0.381 0.423-0.813 0.691-1.295 0.804v0c-0.891 0.208-1.645 0.092-2.262-0.349-0.618-0.44-1.321-1.219-2.111-2.335v0l-2.241-3.296c-0.452-0.653-0.85-1.155-1.196-1.505-0.348-0.357-0.809-0.621-1.386-0.793-0.584-0.177-1.298-0.167-2.142 0.03v0l-2.148 0.502 1.447 6.195c0.132 0.567 0.305 1.174 0.518 1.819 0.22 0.644 0.47 1.163 0.75 1.558v0c-0.137 0.22-0.34 0.434-0.611 0.643-0.27 0.216-0.589 0.367-0.959 0.454v0c-0.521 0.122-0.975 0.071-1.361-0.152-0.378-0.218-0.625-0.578-0.742-1.079v0l-4.064-17.407c-0.117-0.501-0.3-1.106-0.549-1.813-0.242-0.709-0.498-1.285-0.769-1.73v0c0.933-0.74 2.551-1.378 4.854-1.916v0c3.127-0.73 5.558-0.793 7.292-0.19 1.733 0.597 2.85 1.971 3.352 4.122v0c0.371 1.59 0.232 3.035-0.418 4.335-0.651 1.293-1.712 2.32-3.183 3.081v0c0.808 0.034 1.503 0.254 2.085 0.661 0.574 0.402 1.18 0.987 1.819 1.756v0l2.43 3.346c0.441 0.607 0.813 1.024 1.116 1.252 0.304 0.228 0.61 0.317 0.918 0.266v0c0.369-0.086 0.643-0.286 0.821-0.598zM144.812 232.33l2.283-0.502c1.554-0.405 2.699-1.222 3.435-2.451 0.731-1.221 0.908-2.637 0.532-4.246v0c-0.401-1.715-1.155-2.892-2.265-3.531-1.108-0.632-2.674-0.711-4.699-0.238v0c-0.91 0.213-1.49 0.369-1.738 0.468v0z" fill="#ffffff" data-fill-palette-color="accent"></path><path d="M203.28 215.664c-1.873 1.645-3.595 2.539-5.164 2.682-1.565 0.148-2.819-0.315-3.762-1.388v0c-0.912-1.038-0.864-2 0.144-2.886v0c0.081-0.072 0.27-0.21 0.567-0.417v0c0.128 0.248 0.301 0.497 0.52 0.747v0c0.165 0.188 0.298 0.324 0.399 0.407v0c0.875 0.863 1.912 1.274 3.11 1.232 1.198-0.042 2.393-0.587 3.584-1.633v0c1.038-0.912 1.652-1.902 1.841-2.97 0.185-1.073-0.141-2.085-0.977-3.037v0c-0.545-0.621-1.166-1.04-1.862-1.259-0.701-0.223-1.491-0.296-2.37-0.218-0.884 0.082-2.039 0.271-3.464 0.568v0c-1.748 0.381-3.168 0.618-4.259 0.71-1.086 0.098-2.1 0.001-3.041-0.291-0.937-0.286-1.787-0.865-2.552-1.735v0c-1.238-1.41-1.652-2.913-1.242-4.509 0.415-1.591 1.419-3.086 3.013-4.485v0c1.527-1.341 2.996-2.149 4.405-2.422 1.405-0.269 2.525 0.072 3.362 1.024v0c0.68 0.774 0.664 1.531-0.047 2.273v0c-0.053 0.073-0.163 0.184-0.331 0.331v0c-0.204 0.179-0.37 0.298-0.498 0.357v0c-0.056-0.104-0.164-0.248-0.325-0.432v0c-0.237-0.27-0.475-0.489-0.714-0.658v0c-0.69-0.611-1.503-0.849-2.438-0.713-0.93 0.132-1.866 0.611-2.808 1.439v0c-0.84 0.738-1.385 1.559-1.636 2.464-0.256 0.91-0.001 1.8 0.763 2.671v0c0.545 0.621 1.164 1.033 1.857 1.236 0.702 0.204 1.495 0.26 2.38 0.169 0.88-0.097 2.057-0.301 3.532-0.614v0c1.526-0.357 2.856-0.593 3.992-0.706 1.14-0.109 2.22-0.003 3.242 0.318 1.021 0.321 1.923 0.926 2.705 1.817v0c0.738 0.84 1.211 1.79 1.421 2.85 0.205 1.065 0.042 2.209-0.489 3.432-0.531 1.223-1.483 2.439-2.858 3.646z" fill="#ffffff" data-fill-palette-color="accent"></path><path d="M236.857 157.426c0.77 0.044 1.394-0.034 1.871-0.235v0c0.295 0.555 0.308 1.198 0.041 1.93v0c-0.17 0.464-0.413 0.823-0.729 1.075-0.316 0.252-0.667 0.355-1.054 0.307v0l-6.697-0.416-2.934 8.016 4.473 3.271c0.456 0.311 0.799 0.509 1.028 0.593v0c0.356 0.13 0.647 0.154 0.872 0.07v0c-0.006 0.589-0.106 1.148-0.299 1.676v0c-0.207 0.566-0.457 0.944-0.75 1.132-0.293 0.189-0.662 0.202-1.107 0.039v0c-0.35-0.128-0.83-0.433-1.439-0.916v0l-16.905-13.599c-0.016-0.864 0.13-1.716 0.438-2.556v0c0.338-0.923 0.874-1.354 1.61-1.294v0zM225.88 166.99l2.563-7.005-13.181-0.798z" fill="#ffffff" data-fill-palette-color="accent"></path><path d="M0.993 124.825c0-5.055 4.098-9.154 9.154-9.154 5.055 0 9.154 4.098 9.154 9.154 0 5.055-4.098 9.154-9.154 9.154-5.055 0-9.154-4.098-9.154-9.154z" fill="#ffffff" data-fill-palette-color="accent"></path><path d="M225.131 124.825c0-5.055 4.098-9.154 9.153-9.154 5.055 0 9.154 4.098 9.154 9.154 0 5.055-4.098 9.154-9.154 9.154-5.055 0-9.154-4.098-9.153-9.154z" fill="#ffffff" data-fill-palette-color="accent"></path></g></svg></g></svg></g></svg></g><defs></defs></svg><rect width="395.52" height="140.38973438136122" fill="none" stroke="none" visibility="hidden"></rect></g></svg></g></svg>